# File produced by Open Asset Import Library (http://www.assimp.sf.net)
# (assimp v3.1.193236683)

mtllib Rocks.mtl

# 36 vertex positions
v  -0.5 2.41429 0.5
v  -0.5 1.41429 0.5
v  0.5 1.6809 0.5
v  0.5 2.41429 0.5
v  -0.5 2.41429 -0.5
v  0.5 2.41429 -0.5
v  -0.5 1.6809 -0.5
v  0.5 1.84205 -0.5
v  -0.349261 0.187935 0.00320983
v  -0.349261 0.187935 -0.439728
v  0.0936764 0.187935 -0.439728
v  0.0936764 0.187935 0.00320983
v  -0.567123 1.15317 -0.567123
v  0.567123 1.15317 -0.567123
v  0.567123 1.15317 0.567123
v  -0.535748 1.15317 0.528786
v  -0.352122 2.37988 2.51375
v  -0.437965 1.69653 2.65434
v  0.437965 1.69653 2.65434
v  0.352122 2.37988 2.51375
v  -0.381706 1.9916 1.89986
v  0.381706 1.9916 1.89986
v  -0.5 1.56126 1.55849
v  0.5 1.56126 1.55849
v  -0.381568 0.0122663 2.42751
v  -0.431839 0.0122665 1.33472
v  0.431839 0.0122665 1.33472
v  0.381568 0.0122663 2.42751
v  -0.5 0.940421 1.30049
v  -0.5 0.975005 2.63843
v  0.5 0.975005 2.63843
v  0.5 0.940421 1.30049
v  -0.5 0.278654 1.24847
v  -0.441794 0.230969 2.51375
v  0.441794 0.230969 2.51375
v  0.5 0.278654 1.24847

# 82 UV coordinates
vt 0.520432 0.507623 0
vt 0.520432 0.279617 0
vt 0.748438 0.340405 0
vt 0.748438 0.507623 0
vt 2.98023e-08 0.735629 0
vt 2.98023e-08 0.507623 0
vt 0.228006 0.507623 0
vt 0.228006 0.735629 0
vt 0.271445 0.167217 0
vt 0.271445 -3.25963e-09 0
vt 0.499451 -3.25963e-09 0
vt 0.499451 0.130474 0
vt 0.808428 0.100992 0
vt 0.707436 0.100992 0
vt 0.707436 0 0
vt 0.808428 0 0
vt 0.0153044 0.507623 0
vt 0.0153044 0.340405 0
vt 0.24331 0.377149 0
vt 0.24331 0.507623 0
vt 0.765431 0.637596 0
vt 0.765431 0.470378 0
vt 0.993437 0.40959 0
vt 0.993437 0.637596 0
vt 0.305814 0.507623 0
vt 0.256141 0.287544 0
vt 0.514755 0.287544 0
vt 0.406807 0.507623 0
vt 0.229568 -3.25963e-09 0
vt 0.258615 0.220079 0
vt 0 0.220079 0
vt 0.128576 -3.25963e-09 0
vt 0.655794 -3.25963e-09 0
vt 0.763742 0.220079 0
vt 0.512281 0.220079 0
vt 0.554801 -3.25963e-09 0
vt 0.880166 0.129973 0
vt 1 0.350052 0
vt 0.750126 0.350052 0
vt 0.779173 0.129973 0
vt 0.822874 0.261482 0
vt 0.822874 0.184947 0
vt 1 0.184947 0
vt 1 0.261482 0
vt 0.822874 0.39457 0
vt 1 0.39457 0
vt 0.822874 0.478026 0
vt 1 0.478026 0
vt 0.822874 0.889667 0
vt 0.822874 0.663839 0
vt 1 0.663839 0
vt 1 0.889667 0
vt 0.607913 0 0
vt 0.716325 0 0
vt 0.485681 0.280387 0
vt 0.485681 0.149 0
vt 0.483613 0.288176 0
vt 0.354978 0.417239 0
vt 0.354978 0 0
vt 0.483613 0 0
vt 0.207655 0.508578 0
vt 0.207655 0 0
vt 0.822874 0.110114 0
vt 1 0.110114 0
vt 0.819973 0.119027 0
vt 0.485681 0.409883 0
vt 0.822874 0.561577 0
vt 1 0.561577 0
vt 0.0566116 0.508578 0
vt 0.0566116 0 0
vt 0.822874 0.0288296 0
vt 1 0.0288297 0
vt 0.819973 0.235745 0
vt 0.533993 0.508578 0
vt 0.822874 0.630983 0
vt 1 0.630983 0
vt 0.586937 0.508578 0
vt 0.819973 0.28394 0
vt 1 0 0
vt 0.822874 0 0
vt 0 0 0
vt 0 0.46594 0

# 68 vertex normals
vn 0 0 1
vn 0 1 0
vn 0 0 -1
vn 0 -1 0
vn 1 0 0
vn -1 0 0
vn 0 -0.130849 -0.991402
vn 0 -0.130849 -0.991402
vn 0 -0.130849 -0.991402
vn 0.897813 -0.440376 0
vn 0.897813 -0.440376 0
vn 0.897813 -0.440376 0
vn -0.0216272 -0.488939 0.87205
vn -0.0216272 -0.488939 0.87205
vn -0.0216272 -0.488939 0.87205
vn -0.977733 -0.208903 0.0199348
vn -0.977733 -0.208903 0.0199348
vn -0.977733 -0.208903 0.0199348
vn -0.977733 -0.208903 0.0199348
vn -0.00828124 0.109674 -0.993933
vn -0.00828124 0.109674 -0.993933
vn 0.993933 0.109674 0.00828128
vn 0.993933 0.109674 0.00828128
vn 0.993933 0.109674 0.00828128
vn 0.993933 0.109674 0.00828128
vn -0.0332185 0.119323 0.9923
vn -0.0332185 0.119323 0.9923
vn -0.0332185 0.119323 0.9923
vn -0.991317 0.127762 0.0310917
vn -0.991317 0.127762 0.0310917
vn -0.991317 0.127762 0.0310917
vn 0 0.201515 0.979485
vn 0 0.0713664 0.99745
vn 0 0.84514 -0.534545
vn 0 0.84514 -0.534545
vn 0 0.479347 -0.877625
vn 0 0.621471 -0.783437
vn 0 -1 -2.79379e-07
vn 0.983525 0.180754 -0.00264694
vn 0.995498 0.093862 0.0131599
vn 0.997645 0.0661348 0.0181536
vn 0.983525 0.180754 -0.00264695
vn -0.983525 0.180754 -0.00264697
vn -0.997645 0.0661348 0.0181536
vn -0.995498 0.093862 0.0131599
vn -0.983525 0.180754 -0.00264697
vn -0.999681 -0.0118655 0.0222986
vn -0.99975 -0.000618753 0.0223589
vn 0 -0.0958476 0.995396
vn 0.99975 -0.000618743 0.0223589
vn 0.999681 -0.0118655 0.0222986
vn 0 0.234944 -0.972009
vn -0.998781 -0.0441325 0.0221098
vn -0.998781 -0.0441325 0.0221098
vn 0 -0.165269 0.986249
vn 0.998781 -0.0441325 0.0221097
vn 0.998781 -0.0441325 0.0221098
vn 0 0.0783566 -0.996925
vn 0 -0.30801 -0.951383
vn 0 -0.30801 -0.951383
vn 0.965969 -0.25566 0.0392668
vn 0.965969 -0.25566 0.0392668
vn 0 -0.366846 0.930282
vn 0 -0.366846 0.930282
vn -0.965969 -0.25566 0.0392668
vn -0.965969 -0.25566 0.0392668
vn -0.965969 -0.25566 0.0392668
vn -0.965969 -0.25566 0.0392668

# Mesh 'pCube1_pCube1' with 28 faces
g pCube1_pCube1
usemtl lambert2
f  1/1/1 2/2/1 3/3/1
f  3/3/1 4/4/1 1/1/1
f  5/5/2 1/6/2 4/7/2
f  4/7/2 6/8/2 5/5/2
f  7/9/3 5/10/3 6/11/3
f  6/11/3 8/12/3 7/9/3
f  9/13/4 10/14/4 11/15/4
f  11/15/4 12/16/4 9/13/4
f  4/17/5 3/18/5 8/19/5
f  8/19/5 6/20/5 4/17/5
f  5/21/6 7/22/6 2/23/6
f  2/23/6 1/24/6 5/21/6
f  10/25/7 13/26/8 14/27/9
f  14/27/9 11/28/8 10/25/7
f  11/29/10 14/30/11 15/31/11
f  15/31/11 12/32/12 11/29/10
f  12/33/13 15/34/14 16/35/13
f  16/35/13 9/36/15 12/33/13
f  9/37/16 16/38/17 13/39/18
f  13/39/18 10/40/19 9/37/16
f  13/26/20 7/9/21 8/12/21
f  8/12/21 14/27/20 13/26/20
f  14/30/22 8/19/23 3/18/24
f  3/18/24 15/31/25 14/30/22
f  15/34/26 3/3/27 2/2/28
f  2/2/28 16/35/26 15/34/26
f  16/38/29 2/23/30 7/22/31
f  7/22/31 13/39/31 16/38/29

# Mesh 'pCube2_pCube2' with 36 faces
g pCube2_pCube2
usemtl lambert1
f  17/41/32 18/42/33 19/43/33
f  19/43/33 20/44/32 17/41/32
f  21/45/34 17/41/35 20/44/35
f  20/44/35 22/46/34 21/45/34
f  23/47/36 21/45/37 22/46/37
f  22/46/37 24/48/36 23/47/36
f  25/49/38 26/50/38 27/51/38
f  27/51/38 28/52/38 25/49/38
f  20/53/39 19/54/40 24/55/41
f  24/55/41 22/56/42 20/53/39
f  21/57/43 23/58/44 18/59/45
f  18/59/45 17/60/46 21/57/43
f  23/58/44 29/61/47 30/62/48
f  30/62/48 18/59/45 23/58/44
f  18/42/33 30/63/49 31/64/49
f  31/64/49 19/43/33 18/42/33
f  19/54/40 31/65/50 32/66/51
f  32/66/51 24/55/41 19/54/40
f  29/67/52 23/47/36 24/48/36
f  24/48/36 32/68/52 29/67/52
f  29/61/47 33/69/53 34/70/54
f  34/70/54 30/62/48 29/61/47
f  30/63/49 34/71/55 35/72/55
f  35/72/55 31/64/49 30/63/49
f  31/65/50 35/73/56 36/74/57
f  36/74/57 32/66/51 31/65/50
f  33/75/58 29/67/52 32/68/52
f  32/68/52 36/76/58 33/75/58
f  26/50/59 33/75/60 36/76/60
f  36/76/60 27/51/59 26/50/59
f  27/77/61 36/74/61 35/73/62
f  35/73/62 28/78/61 27/77/61
f  28/79/63 35/72/64 34/71/64
f  34/71/64 25/80/63 28/79/63
f  25/81/65 34/70/66 33/69/67
f  33/69/67 26/82/68 25/81/65

