# This file uses meters as units for non-parametric coordinates.

mtllib door.mtl
g default
v -25.000000 0.000000 5.000000
v 25.000000 0.000000 5.000000
v -25.000000 100.000000 5.000000
v 25.000000 100.000000 5.000000
v -25.000000 0.000000 -5.000000
v 25.000000 0.000000 -5.000000
v -25.000000 100.000000 6.760394
v 25.000000 100.000000 6.760394
v 25.000000 0.000000 -9.239206
v 25.000000 0.000000 6.760394
v -25.000000 0.000000 -9.239206
v -25.000000 0.000000 6.760394
v -29.678177 104.070267 6.760394
v 29.678177 104.070267 6.760394
v 29.678177 104.070267 -9.239206
v -29.678177 104.070267 -9.239206
v 29.678177 -0.040905 -9.239206
v 29.678177 -0.040905 6.760394
v -29.678177 -0.040905 -9.239206
v -29.678177 -0.040905 6.760394
vt 0.556058 0.000005
vt 0.668852 0.000004
vt 0.668859 0.733965
vt 0.556065 0.733966
vt 0.000013 0.000000
vt 0.112807 0.000002
vt 0.112794 0.733964
vt 0.125204 0.859168
vt 0.510674 0.705272
vt 0.510671 0.000289
vt 0.523074 0.000286
vt 0.523085 0.705272
vt 0.158190 0.000291
vt 0.158185 0.705270
vt 0.158185 0.717680
vt 0.145785 0.000283
vt 0.440170 0.000288
vt 0.410292 0.000280
vt 0.228695 0.000289
vt 0.258575 0.000285
vt 0.125204 0.746374
vt 0.000000 0.733962
vt 0.543654 0.746377
vt 0.543653 0.859171
vt 0.510674 0.717683
vt 0.145774 0.705270
vn 0.000000 0.000000 1.000000
vn 0.000000 0.000000 1.000000
vn 0.000000 0.000000 1.000000
vn 0.000000 0.000000 1.000000
vn 0.000000 1.000000 0.000000
vn 0.000000 1.000000 0.000000
vn 0.000000 1.000000 0.000000
vn 0.000000 1.000000 0.000000
vn 1.000000 0.000000 0.000000
vn 1.000000 0.000000 0.000000
vn 1.000000 0.000000 0.000000
vn 1.000000 0.000000 0.000000
vn -1.000000 0.000000 0.000000
vn -1.000000 0.000000 0.000000
vn -1.000000 0.000000 0.000000
vn -1.000000 0.000000 0.000000
vn 0.000000 -1.000000 0.000000
vn 0.000000 -1.000000 0.000000
vn 0.000000 -1.000000 0.000000
vn 0.000000 -1.000000 0.000000
vn 0.000000 -0.000000 0.000000
vn 0.000000 -0.000000 0.000000
vn 0.000000 -0.000000 0.000000
vn 0.000000 -0.000000 0.000000
vn -1.000000 0.000000 0.000000
vn -1.000000 0.000000 0.000000
vn -1.000000 0.000000 0.000000
vn -1.000000 0.000000 0.000000
vn 0.000000 -0.000000 0.000000
vn 0.000000 -0.000000 0.000000
vn 0.000000 -0.000000 0.000000
vn 0.000000 -0.000000 0.000000
vn 1.000000 0.000000 0.000000
vn 1.000000 0.000000 0.000000
vn 1.000000 0.000000 0.000000
vn 1.000000 0.000000 0.000000
vn 0.000000 0.000000 1.000000
vn 0.000000 0.000000 1.000000
vn 0.000000 0.000000 1.000000
vn 0.000000 0.000000 1.000000
vn 0.000000 0.000000 1.000000
vn 0.000000 0.000000 1.000000
vn 0.000000 0.000000 1.000000
vn 0.000000 0.000000 1.000000
vn 0.000000 0.000000 1.000000
vn 0.000000 0.000000 1.000000
vn 0.000000 0.000000 1.000000
vn 0.000000 0.000000 1.000000
s off
g pCube1
usemtl initialShadingGroup
f 1/13/1 2/10/2 4/9/3 3/14/4
f 13/21/5 14/23/6 15/24/7 16/8/8
f 18/1/9 17/2/10 15/3/11 14/4/12
f 19/5/13 20/6/14 13/7/15 16/22/16
f 3/14/17 4/9/18 8/25/19 7/15/20
f 2/10/21 6/17/22 9/18/23 10/11/24
f 4/9/25 2/10/26 10/11/27 8/12/28
f 5/19/29 1/13/30 12/16/31 11/20/32
f 1/13/33 3/14/34 7/26/35 12/16/36
f 7/15/37 8/25/38 14/23/39 13/21/40
f 8/12/41 10/11/42 18/1/43 14/4/44
f 12/16/45 7/26/46 13/7/47 20/6/48
g default
v 15.468191 46.057263 6.523823
v 21.467753 46.057263 6.523823
v 15.468191 58.722059 6.523823
v 21.467753 58.722059 6.523823
v 15.468191 58.722059 4.265286
v 21.467753 58.722059 4.265286
v 15.468191 46.057263 4.265286
v 21.467753 46.057263 4.265286
vt 0.688242 0.929589
vt 0.830774 0.929594
vt 0.545282 0.999995
vt 0.545709 0.929585
vt 0.689096 0.788768
vt 0.688669 0.859179
vt 0.546137 0.859175
vt 0.403604 0.859170
vt 0.687815 1.000000
vt 0.831201 0.859183
vt 0.403177 0.929581
vt 0.546564 0.788764
vn 0.000000 0.000000 1.000000
vn 0.000000 0.000000 1.000000
vn 0.000000 0.000000 1.000000
vn 0.000000 0.000000 1.000000
vn 0.000000 1.000000 0.000000
vn 0.000000 1.000000 0.000000
vn 0.000000 1.000000 0.000000
vn 0.000000 1.000000 0.000000
vn 0.000000 -1.000000 0.000000
vn 0.000000 -1.000000 0.000000
vn 0.000000 -1.000000 0.000000
vn 0.000000 -1.000000 0.000000
vn 1.000000 0.000000 0.000000
vn 1.000000 0.000000 0.000000
vn 1.000000 0.000000 0.000000
vn 1.000000 0.000000 0.000000
vn -1.000000 0.000000 0.000000
vn -1.000000 0.000000 0.000000
vn -1.000000 0.000000 0.000000
vn -1.000000 0.000000 0.000000
s off
g pCube2
usemtl initialShadingGroup
f 21/32/49 22/27/50 24/30/51 23/33/52
f 23/33/53 24/30/54 26/37/55 25/34/56
f 27/36/57 28/28/58 22/27/59 21/32/60
f 22/27/61 28/35/62 26/29/63 24/30/64
f 27/31/65 21/32/66 23/33/67 25/38/68
