# This file uses meters as units for non-parametric coordinates.

mtllib Rock.mtl
g default
v -1.347584 -1.687302 -62.872776
v 19.203009 -1.687302 -74.737663
v 20.774208 48.312698 -73.215263
v 0.201614 48.312698 -61.350372
v 19.202995 -1.687302 74.737648
v -1.347591 -1.687302 62.872761
v 0.201607 48.312698 64.369759
v 20.774197 48.312698 76.234642
v 128.101822 -1.687302 -11.864890
v 128.101822 -1.687302 11.864887
v 129.651016 48.312698 13.374588
v 129.651016 48.312698 -10.355190
v 28.367805 99.337845 -59.521919
v 8.497791 99.337845 -48.302845
v 8.497784 99.337845 54.124825
v 28.367796 99.337845 65.343903
v 116.796867 99.337845 14.289358
v 116.796867 99.337845 -8.467363
v 41.280235 147.287552 -43.491112
v 21.244188 147.287552 -32.606689
v 21.244184 147.287552 38.178589
v 41.280231 147.287552 49.063015
v 101.726547 147.287552 14.164314
v 101.726547 147.287552 -8.592407
v 55.502609 -1.687302 11.864888
v 34.952019 -1.687302 -0.000001
v 55.502609 -1.687302 -11.864888
v 63.090221 194.779526 -11.864892
v 42.539635 194.779526 -0.000004
v 63.090221 194.779526 11.864885
vt 0.702554 0.288942
vt 0.020009 0.158653
vt 0.779968 0.525658
vt 0.702591 0.525670
vt 0.105671 0.311364
vt 0.030156 0.323204
vt 0.139317 0.477614
vt 0.067774 0.496621
vt 0.536295 0.711070
vt 0.511059 0.163587
vt 0.107276 0.296902
vt 0.511043 0.328034
vt 0.143678 0.460110
vt 0.468683 0.496564
vt 0.508791 0.131748
vt 0.513307 0.296439
vt 0.473934 0.465635
vt 0.178061 0.637548
vt 0.110558 0.665294
vt 0.202005 0.614091
vt 0.405882 0.656840
vt 0.424369 0.626171
vt 0.259210 0.815693
vt 0.298577 0.868252
vt 0.301921 0.791141
vt 0.779968 0.525658
vt 0.741290 0.592674
vt 0.984999 0.643990
vt 0.529056 0.301430
vt 0.089913 0.309983
vt 0.484235 0.487435
vt 0.123782 0.488364
vt 0.415123 0.661380
vt 0.531068 0.124742
vt 0.170165 0.655411
vt 0.095838 0.683034
vt 0.046431 0.507953
vt 0.008175 0.322835
vt 0.085320 0.134938
vt 0.779931 0.288930
vt 0.779931 0.288930
vt 0.095200 0.137693
vt 0.000000 0.142825
vt 0.946321 0.711007
vt 0.098419 0.151610
vt 0.497596 0.644066
vt 0.277620 0.837933
vt 0.200479 0.875258
vt 0.133942 0.641118
vt 0.071881 0.478104
vt 0.032057 0.306620
vt 0.017761 0.143339
vt 0.232847 0.827692
vt 0.189132 0.848390
vn -0.939419 -0.312000 -0.141946
vn 0.341980 -0.329117 -0.880188
vn 0.000000 -1.000000 -0.000000
vn 0.000000 -1.000000 0.000000
vn -0.980669 0.110300 -0.161623
vn 0.352257 0.098019 -0.930756
vn -0.956559 0.238567 -0.167571
vn 0.330460 0.207926 -0.920632
vn 0.336590 -0.369607 0.866082
vn -0.941260 -0.309577 0.134876
vn 0.000000 -1.000000 -0.000000
vn 0.353377 0.045946 0.934352
vn -0.981324 0.102876 0.162539
vn 0.332397 0.178064 0.926178
vn -0.956465 0.235683 0.172126
vn 0.583998 -0.325961 -0.743435
vn 0.579674 -0.368877 0.726573
vn 0.632140 0.089127 -0.769711
vn 0.633591 0.044263 0.772401
vn 0.633230 0.192257 -0.749705
vn 0.632799 0.166339 0.756239
vn -0.887551 0.392738 -0.240851
vn 0.252346 0.318383 -0.913758
vn 0.252037 0.343711 0.904621
vn -0.880614 0.406249 0.243886
vn 0.678157 0.312211 -0.665302
vn 0.670280 0.323625 0.667826
vn -0.665124 0.746693 -0.007740
vn 0.355963 0.704470 -0.614013
vn 0.341436 0.744678 0.573478
s 1
g pCylinder1
usemtl initialShadingGroup
f 1/1/1 2/40/2 27/3/3 26/4/4
f 2/2/2 1/45/1 4/5/5 3/6/6
f 3/6/6 4/5/5 14/7/7 13/8/8
f 5/9/9 6/46/10 26/4/4 25/27/11
f 6/52/10 5/42/9 8/11/12 7/51/13
f 7/51/13 8/11/12 16/13/14 15/50/15
f 9/28/16 10/44/17 25/27/11 27/26/3
f 10/43/17 9/39/16 12/30/18 11/38/19
f 11/38/19 12/30/18 18/32/20 17/37/21
f 13/8/8 14/7/7 20/18/22 19/19/23
f 15/50/15 16/13/14 22/20/24 21/49/25
f 17/37/21 18/32/20 24/35/26 23/36/27
f 19/19/23 20/18/22 29/23/28 28/54/29
f 21/49/25 22/20/24 30/25/30 29/53/28
f 23/36/27 24/35/26 28/47/29 30/48/30
f 1/45/1 6/10/10 7/12/13 4/5/5
f 5/42/9 10/15/17 11/16/19 8/11/12
f 9/39/16 2/34/2 3/29/6 12/30/18
f 4/5/5 7/12/13 15/14/15 14/7/7
f 8/11/12 11/16/19 17/17/21 16/13/14
f 12/30/18 3/29/6 13/31/8 18/32/20
f 14/7/7 15/14/15 21/21/25 20/18/22
f 16/13/14 17/17/21 23/22/27 22/20/24
f 18/32/20 13/31/8 19/33/23 24/35/26
f 6/46/10 1/1/1 26/4/4
f 10/44/17 5/9/9 25/27/11
f 2/41/2 9/28/16 27/26/3
f 20/18/22 21/21/25 29/23/28
f 22/20/24 23/22/27 30/25/30
f 24/35/26 19/33/23 28/47/29
f 25/27/11 26/4/4 27/3/3
f 28/24/29 29/53/28 30/25/30
